<svg xmlns="http://www.w3.org/2000/svg" width="24.661" height="24.661" viewBox="0 0 24.661 24.661">
  <g id="instagram" transform="translate(0)">
    <path id="Path_72477" data-name="Path 72477" d="M17.314,0H7.347A7.355,7.355,0,0,0,0,7.347v9.968a7.355,7.355,0,0,0,7.347,7.347h9.968a7.355,7.355,0,0,0,7.347-7.347V7.347A7.355,7.355,0,0,0,17.314,0ZM22.18,17.314a4.866,4.866,0,0,1-4.866,4.866H7.347a4.866,4.866,0,0,1-4.866-4.866V7.347A4.866,4.866,0,0,1,7.347,2.481h9.968A4.866,4.866,0,0,1,22.18,7.347v9.968Z" transform="translate(0)" fill="#101f45"/>
    <path id="Path_72478" data-name="Path 72478" d="M139.378,133a6.378,6.378,0,1,0,6.378,6.378A6.385,6.385,0,0,0,139.378,133Zm0,10.275a3.9,3.9,0,1,1,3.9-3.9A3.9,3.9,0,0,1,139.378,143.275Z" transform="translate(-127.048 -127.048)" fill="#101f45"/>
    <ellipse id="Ellipse_2243" data-name="Ellipse 2243" cx="1.528" cy="1.528" rx="1.528" ry="1.528" transform="translate(17.193 4.472)" fill="#101f45"/>
  </g>
</svg>
