<svg width="346.5" height="173.5" xmlns="http://www.w3.org/2000/svg">

 <g>
  <path id="svg_1" fill="#202945" d="m82.34,172.82a1.66,1.66 0 0 1 -0.66,-1.1c-1.2,-10.27 -4.43,-6.2 -3.76,-16.67c0.09,-1.41 0,-3.09 -1.42,-3c0,0 -0.66,0.06 -1.5,2.85c-0.38,1.27 -0.55,7.58 -2,10.09c-4.44,7.78 0.75,4.47 -0.13,7.82l9.47,0.01z" class="cls-1"/>
  <path id="svg_2" fill="#202945" d="m133.29,31.95058l-18.89,0a1,1 0 0 1 -0.79,-0.36l-6.62,-7.28a0.85,0.85 0 0 0 -0.61,-0.28l-13.78,-0.08a0.65,0.65 0 0 1 -0.61,-0.41c-1.68,-4.13 -2.07,-8.57 -2.47,-13.22c-0.06,-0.59 -0.1,-1.19 -0.12,-1.79s-0.07,-1.4 0,-2.1c0.38,-13.36 -5.43,-3.1 -9.91,5.53c-6.68,12.83 -10.28,40.66 -10,45.78c2.77,48.08 -55.55,40.19 -67.31,91.47c0,0.16 -0.19,2.11 -0.19,2.93a44.49,44.49 0 0 0 1.18,10.2l0.06,0.25a3.17,3.17 0 0 1 -1,2.4l-0.12,0.07l-0.19,0.03l0,0a4,4 0 0 0 -1.92,3.15c0,0.24 0,0.47 0,0.7c0.13,1.22 0.32,2.47 2.61,2.91l33.58,0c-5.86,-3 -8,-21.95 -6.69,-30c1.51,-9.09 -6.47,-8.13 -3.59,-12.93c1,-1.61 6.26,0.59 7.14,5c1.39,6.93 -1.35,6.49 0.22,20.29c1,9.06 5.29,11.62 5.4,11.23s-3.91,-8.1 -3,-17.21c1.6,-16.31 9.86,-21.72 11.64,-23.2c6.14,-5.11 12.75,-7.88 20.08,-11.39c1.26,-0.61 2.4,-3.65 2.9,-4.89c0.88,-2.19 6.06,-15.81 14,-21.48c1.78,-1.27 5.58,-6.65 5.11,-4.51c-0.42,1.92 -0.64,7.94 -0.22,8.59c8.54,2.71 8.76,7.47 12.31,11.33c3.87,4.21 -8.81,8.73 -8.8,9c0,0.62 -0.09,5.82 -0.34,7.73a44.27,44.27 0 0 1 -2.94,11l0,0c-0.05,0.08 -0.1,0.15 -0.15,0.24a44.15,44.15 0 0 0 -3.22,6.32l0,0a43.37,43.37 0 0 0 -1.78,5.26a44.22,44.22 0 0 0 -1.55,11.63a38.91,38.91 0 0 0 0.81,8.48c1.9,8.37 4.93,6.66 4,9.43l27.2,0a1.41,1.41 0 0 0 1.36,-1.67a2.44,2.44 0 0 0 -0.06,-0.55l0,0l0,0c-0.05,-0.13 -0.09,-0.26 -0.14,-0.4a71.08,71.08 0 0 1 -3.57,-16.89c-0.09,-1 -0.16,-2.09 -0.21,-3.14s-0.08,-2.18 -0.08,-3.29a73.24,73.24 0 0 1 0.38,-7.44c0.74,-7.18 5.84,-24.67 6.06,-26.79a117.09,117.09 0 0 0 0.63,-12.2a116.17,116.17 0 0 0 -7.96,-42.31l-0.4,-1a1.16,1.16 0 0 1 1.08,-1.59l0,0a27.75,27.75 0 0 0 12.63,-3l0,0c0.55,-0.43 1.08,-0.88 1.6,-1.35a27.68,27.68 0 0 0 6.13,-8.06a24.57,24.57 0 0 0 1.12,-2.51s1.35,-5.47 1.35,-6.23a1.37,1.37 0 0 0 -1.35,-1.38" class="cls-1"/>
  <g>

   <path fill="#00b2e3" d="m253.32552,173.15016l-0.1,0a6.2,6.2 0 0 1 -5.83,-4.35l-35.2,-112.24l-11.24,36.17a6.21,6.21 0 0 1 -5.93,4.37l-31.32,0l0,-12.43l26.74,0l15.79,-50.81a6.24,6.24 0 0 1 5.93,-4.37l0,0a6.23,6.23 0 0 1 5.93,4.36l35.51,113.28l21.1,-60.78a6.22,6.22 0 0 1 5.87,-4.17l0,0l54.85,0l0,12.43l-50.42,0l-25.82,74.39a6.19,6.19 0 0 1 -5.86,4.17" class="cls-1"/>
   <polygon fill="#202945" points="151.51598690450191,156.84017944335938 188.11599300801754,156.84017944335938 188.11599300801754,171.7301788330078 134.8554339259863,171.7301788330078 134.8554339259863,85.41015625 151.51598690450191,85.41015625 151.51598690450191,156.84017944335938 " class="cls-2"/>
   <polygon fill="#202945" points="202.99599789083004,107.09014892578125 202.99599789083004,120.39015197753906 202.99599789083004,171.7301788330078 218.83599422872066,171.7301788330078 218.83599422872066,120.39015197753906 218.83599422872066,107.09014892578125 202.99599789083004,107.09014892578125 " class="cls-2"/>
   <path fill="#202945" d="m330.83552,134.31016c-0.95,-8.74 -7.78,-13.92 -16.66,-13.92c-8.46,0 -15.43,4.23 -17.34,13.92l34,0zm15.43,11.06l-49.43,0c1.78,8.88 8.6,13.66 18.16,13.66c6.83,0 13.52,-3 17.21,-8.2l10.63,8.06c-5.87,9.28 -17.21,14.47 -28.81,14.47c-19,0 -33.46,-13.65 -33.46,-33.59c0,-20.34 15.16,-33.45 33.46,-33.45s32.49,13 32.49,32.91c0,1.77 -0.13,3.82 -0.27,6.14" class="cls-2"/>
  </g>
 </g>
</svg>