<svg xmlns="http://www.w3.org/2000/svg" viewBox="0 0 28.174 35.217">
  <path id="medical-drip" d="M26.891,9.043H23.37V5.522h3.522a1.761,1.761,0,1,0,0-3.522H12.8A8.8,8.8,0,0,0,4,10.8V35.457a1.761,1.761,0,0,0,3.522,0V10.8A5.283,5.283,0,0,1,12.8,5.522h7.043V9.043H16.326a5.283,5.283,0,0,0-5.283,5.283v8.681a5.283,5.283,0,0,0,2.36,4.4l2.923,1.955v.81A3.522,3.522,0,0,0,19.848,33.7v1.761a1.761,1.761,0,0,0,3.522,0V33.7a3.522,3.522,0,0,0,3.522-3.522v-.81l2.923-1.955a5.283,5.283,0,0,0,2.36-4.4V14.326A5.283,5.283,0,0,0,26.891,9.043Zm-1.761,8.8h3.522v1.761H26.891a1.761,1.761,0,0,0,0,3.522h1.761a1.761,1.761,0,0,1-.775,1.338l-3.7,2.483a1.761,1.761,0,0,0-.81,1.462v1.761H19.848V28.413a1.761,1.761,0,0,0-.792-1.462l-3.7-2.483a1.761,1.761,0,0,1-.792-1.462V14.326a1.761,1.761,0,0,1,1.761-1.761H26.891a1.761,1.761,0,0,1,1.761,1.761H25.13a1.761,1.761,0,1,0,0,3.522Z" transform="translate(-4 -2)" fill="#00b5e2"/>
</svg>
