<svg xmlns="http://www.w3.org/2000/svg" width="18" height="22.011" viewBox="0 0 18 22.011">
  <path id="microscope" d="M20,21.005H14.816a2.964,2.964,0,0,0,.143-.592A8.044,8.044,0,0,0,20,13.005a7.945,7.945,0,0,0-2.127-5.422l.637-.638a.991.991,0,0,0,.241-.391l.708-2.122a1,1,0,0,0-.241-1.023L17.1,1.288a1,1,0,0,0-1.023-.242l-2.121.708A1,1,0,0,0,13.561,2L7.2,8.358a1,1,0,0,0,0,1.414L5.782,11.188a1,1,0,0,0,0,1.414L7.9,14.723a1,1,0,0,0,1.414,0l1.414-1.414,0,0a1,1,0,0,0,1.414,0L16.458,9A5.955,5.955,0,0,1,18,13.005a6.048,6.048,0,0,1-3.455,5.431,2.976,2.976,0,0,0-5.125.063A6.822,6.822,0,0,1,8.3,17.945a.989.989,0,0,0,.7-.939,1,1,0,0,0-1-1H4a1,1,0,0,0,0,2H5.331a8.814,8.814,0,0,0,3.716,2.473,2.955,2.955,0,0,0,.137.527H4a1,1,0,0,0,0,2H20a1,1,0,0,0,0-2ZM8.611,12.6,7.9,11.895l.708-.708.707.708Zm8.317-6.9-5.487,5.491L9.319,9.065l5.488-5.489,1.312-.437,1.247,1.248ZM12,21.005a1,1,0,1,1,1-1A1,1,0,0,1,12,21.005Z" transform="translate(-3 -0.994)" fill="#00b5e2"/>
</svg>
