<svg id="Layer_1" data-name="Layer 1" xmlns="http://www.w3.org/2000/svg" viewBox="0 0 273.61 206.06"><defs><style>.cls-1{fill:#00b2e3;}.cls-2{fill:#202945;}</style></defs><path class="cls-1" d="M149.49,175.15h-.1a6.2,6.2,0,0,1-5.83-4.35L108.36,58.56,97.12,94.73a6.21,6.21,0,0,1-5.93,4.37H59.87V86.67H86.61L102.4,35.86a6.24,6.24,0,0,1,5.93-4.37h0a6.23,6.23,0,0,1,5.93,4.36l35.51,113.28,21.1-60.78a6.22,6.22,0,0,1,5.87-4.17h0l54.85,0,0,12.43-50.42,0L155.35,171a6.19,6.19,0,0,1-5.86,4.17"/><polygon class="cls-2" points="47.68 158.84 84.28 158.84 84.28 173.73 31.02 173.73 31.02 87.41 47.68 87.41 47.68 158.84"/><polygon class="cls-2" points="99.16 109.09 99.16 122.39 99.16 173.73 115 173.73 115 122.39 115 109.09 99.16 109.09"/><path class="cls-2" d="M227,136.31c-.95-8.74-7.78-13.92-16.66-13.92-8.46,0-15.43,4.23-17.34,13.92Zm15.43,11.06H193c1.78,8.88,8.6,13.66,18.16,13.66,6.83,0,13.52-3,17.21-8.2L239,160.89c-5.87,9.28-17.21,14.47-28.81,14.47-19,0-33.46-13.65-33.46-33.59,0-20.34,15.16-33.45,33.46-33.45s32.49,13,32.49,32.91c0,1.77-.13,3.82-.27,6.14"/></svg>