<svg xmlns="http://www.w3.org/2000/svg" width="492.836" height="390.276" viewBox="0 0 492.836 390.276">
  <g id="Group_48274" data-name="Group 48274" transform="translate(-168.165 -175.555)">
    <g id="Ellipse_2255" data-name="Ellipse 2255" transform="translate(557.478 175.555)" fill="none" stroke="#caf1f8" stroke-width="3">
      <ellipse cx="5.3" cy="4.818" rx="5.3" ry="4.818" stroke="none"/>
      <ellipse cx="5.3" cy="4.818" rx="3.8" ry="3.318" fill="none"/>
    </g>
    <g id="Group_48273" data-name="Group 48273">
      <path id="Path_75072" data-name="Path 75072" d="M249.434,128.238h-.023a1.586,1.586,0,0,1-1.489-1.109l-8.971-28.613-2.865,9.221a1.583,1.583,0,0,1-1.512,1.114H226.59v-3.166h6.817l4.025-12.94a1.583,1.583,0,0,1,1.512-1.114h0a1.581,1.581,0,0,1,1.517,1.1l9.05,28.879,5.379-15.495a1.586,1.586,0,0,1,1.5-1.063h13.98v3.169H257.513l-6.582,18.959a1.583,1.583,0,0,1-1.5,1.063" transform="translate(390.634 394.218)" fill="#99e1f3"/>
      <path id="Path_75073" data-name="Path 75073" d="M249.434,128.238h-.023a1.586,1.586,0,0,1-1.489-1.109l-8.971-28.613-2.865,9.221a1.583,1.583,0,0,1-1.512,1.114H226.59v-3.166h6.817l4.025-12.94a1.583,1.583,0,0,1,1.512-1.114h0a1.581,1.581,0,0,1,1.517,1.1l9.05,28.879,5.379-15.495a1.586,1.586,0,0,1,1.5-1.063h13.98v3.169H257.513l-6.582,18.959a1.583,1.583,0,0,1-1.5,1.063" transform="translate(4.763 124.398)" fill="#99e1f3"/>
      <g id="Ellipse_2254" data-name="Ellipse 2254" transform="translate(168.165 274.81)" fill="none" stroke="#caf1f8" stroke-width="3">
        <ellipse cx="9.155" cy="8.673" rx="9.155" ry="8.673" stroke="none"/>
        <ellipse cx="9.155" cy="8.673" rx="7.655" ry="7.173" fill="none"/>
      </g>
      <g id="Ellipse_2252" data-name="Ellipse 2252" transform="translate(608.551 416.466)" fill="none" stroke="#caf1f8" stroke-width="3">
        <ellipse cx="5.3" cy="4.818" rx="5.3" ry="4.818" stroke="none"/>
        <ellipse cx="5.3" cy="4.818" rx="3.8" ry="3.318" fill="none"/>
      </g>
      <g id="Ellipse_2253" data-name="Ellipse 2253" transform="translate(251.039 542.703)" fill="none" stroke="#caf1f8" stroke-width="3">
        <ellipse cx="5.3" cy="4.818" rx="5.3" ry="4.818" stroke="none"/>
        <ellipse cx="5.3" cy="4.818" rx="3.8" ry="3.318" fill="none"/>
      </g>
      <g id="Polygon_7" data-name="Polygon 7" transform="translate(420.64 315.283)" fill="none">
        <path d="M10.307,3.06a2,2,0,0,1,3.478,0l8.609,15.152A2,2,0,0,1,20.654,21.2H3.437A2,2,0,0,1,1.7,18.212Z" stroke="none"/>
        <path d="M 12.04555416107178 6.072761535644531 L 5.154973983764648 18.20017242431641 L 18.93613433837891 18.20017242431641 L 12.04555416107178 6.072761535644531 M 12.04555416107178 2.048500061035156 C 12.72334671020508 2.048500061035156 13.40113925933838 2.385828018188477 13.78446388244629 3.060483932495117 L 22.39337348937988 18.21215438842773 C 23.15091323852539 19.54543304443359 22.18792343139648 21.20017242431641 20.65445327758789 21.20017242431641 L 3.436655044555664 21.20017242431641 C 1.90318489074707 21.20017242431641 0.9401836395263672 19.54543304443359 1.697734832763672 18.21215438842773 L 10.30664443969727 3.060483932495117 C 10.68996906280518 2.385828018188477 11.36776161193848 2.048500061035156 12.04555416107178 2.048500061035156 Z" stroke="none" fill="#caf1f8"/>
      </g>
      <g id="Polygon_8" data-name="Polygon 8" transform="translate(325.239 545.594)" fill="none">
        <path d="M9.827,3.039a2,2,0,0,1,3.473,0l8.117,14.205a2,2,0,0,1-1.736,2.992H3.446A2,2,0,0,1,1.71,17.244Z" stroke="none"/>
        <path d="M 11.56373023986816 6.046699523925781 L 5.169546127319336 17.23652267456055 L 17.95792579650879 17.23652267456055 L 11.56373023986816 6.046699523925781 M 11.56373310089111 2.031129837036133 C 12.24002933502197 2.031129837036133 12.9163236618042 2.367036819458008 13.30021381378174 3.038852691650391 L 21.41759490966797 17.24424362182617 C 22.17948341369629 18.57756233215332 21.21675491333008 20.23652267456055 19.68110466003418 20.23652267456055 L 3.44636344909668 20.23652267456055 C 1.910713195800781 20.23652267456055 0.9479846954345703 18.57756233215332 1.709873199462891 17.24424362182617 L 9.827243804931641 3.038852691650391 C 10.21113872528076 2.367036819458008 10.88743686676025 2.031129837036133 11.56373310089111 2.031129837036133 Z" stroke="none" fill="#caf1f8"/>
      </g>
    </g>
  </g>
</svg>
