<svg xmlns="http://www.w3.org/2000/svg" viewBox="0 0 35.217 35.217">
  <path id="stethoscope" d="M31.934,12.565a5.269,5.269,0,0,0-1.761,10.241v2.966a7.924,7.924,0,1,1-15.848,0V24.732a10.573,10.573,0,0,0,8.8-10.406V3.761A1.761,1.761,0,0,0,21.369,2H17.848a1.761,1.761,0,0,0,0,3.522h1.761v8.8a7.043,7.043,0,1,1-14.087,0v-8.8H7.283A1.761,1.761,0,0,0,7.283,2H3.761A1.761,1.761,0,0,0,2,3.761V14.326a10.573,10.573,0,0,0,8.8,10.406v1.039a11.445,11.445,0,1,0,22.891,0V22.806a5.27,5.27,0,0,0-1.761-10.241Zm0,7.043A1.761,1.761,0,1,1,33.7,17.848a1.761,1.761,0,0,1-1.761,1.761Z" transform="translate(-2 -2)" fill="#00b5e2"/>
</svg>
