<svg xmlns="http://www.w3.org/2000/svg" width="417.714" height="163" viewBox="0 0 417.714 163">
  <g id="Group_48272" data-name="Group 48272" transform="translate(-180.286 -1643)">
    <g id="Ellipse_2262" data-name="Ellipse 2262" transform="translate(244 1740)" fill="none" stroke="#93e2f2" stroke-width="3">
      <circle cx="5.5" cy="5.5" r="5.5" stroke="none"/>
      <circle cx="5.5" cy="5.5" r="4" fill="none"/>
    </g>
    <path id="Path_75076" data-name="Path 75076" d="M250.3,129.619h-.024a1.646,1.646,0,0,1-1.545-1.151l-9.309-29.693-2.974,9.569a1.643,1.643,0,0,1-1.569,1.156H226.59v-3.286h7.074l4.177-13.428a1.643,1.643,0,0,1,1.569-1.156h0a1.64,1.64,0,0,1,1.574,1.138l9.392,29.968,5.582-16.079a1.646,1.646,0,0,1,1.553-1.1h14.508v3.288H258.68l-6.831,19.674a1.643,1.643,0,0,1-1.553,1.1" transform="translate(-46.304 1556.881)" fill="#99e1f3"/>
    <g id="Ellipse_2261" data-name="Ellipse 2261" transform="translate(460 1681)" fill="none" stroke="#93e2f2" stroke-width="3">
      <circle cx="5.5" cy="5.5" r="5.5" stroke="none"/>
      <circle cx="5.5" cy="5.5" r="4" fill="none"/>
    </g>
    <g id="Ellipse_2260" data-name="Ellipse 2260" transform="translate(559 1643)" fill="none" stroke="#93e2f2" stroke-width="3">
      <circle cx="5.5" cy="5.5" r="5.5" stroke="none"/>
      <circle cx="5.5" cy="5.5" r="4" fill="none"/>
    </g>
    <g id="Polygon_9" data-name="Polygon 9" transform="translate(573 1784)" fill="none">
      <path d="M10.761,3.06a2,2,0,0,1,3.478,0L23.3,19.012A2,2,0,0,1,21.563,22H3.437A2,2,0,0,1,1.7,19.012Z" stroke="none"/>
      <path d="M 12.5 6.07276725769043 L 5.154979705810547 19 L 19.84502029418945 19 L 12.5 6.07276725769043 M 12.5 2.048505783081055 C 13.1777925491333 2.048505783081055 13.8555850982666 2.385833740234375 14.23890972137451 3.060489654541016 L 23.30225944519043 19.01197814941406 C 24.05981063842773 20.34526824951172 23.09682083129883 21.99999809265137 21.56335067749023 21.99999809265137 L 3.436649322509766 21.99999809265137 C 1.903179168701172 21.99999809265137 0.9401893615722656 20.34526824951172 1.69774055480957 19.01197814941406 L 10.76109027862549 3.060489654541016 C 11.1444149017334 2.385833740234375 11.8222074508667 2.048505783081055 12.5 2.048505783081055 Z" stroke="none" fill="#93e2f2"/>
    </g>
  </g>
</svg>
