<svg id="Layer_1" data-name="Layer 1" xmlns="http://www.w3.org/2000/svg" viewBox="0 0 196.78 233.73"><defs><style>.cls-1{fill:#101f45;}</style></defs><path class="cls-1" d="M112.34,202.82a1.66,1.66,0,0,1-.66-1.1c-1.2-10.27-4.43-6.2-3.76-16.67.09-1.41,0-3.09-1.42-3,0,0-.66.06-1.5,2.85-.38,1.27-.55,7.58-2,10.09-4.44,7.78.75,4.47-.13,7.82Z"/><path class="cls-1" d="M164.37,62.86H145.48a1,1,0,0,1-.79-.36l-6.62-7.28a.85.85,0,0,0-.61-.28l-13.78-.08a.65.65,0,0,1-.61-.41c-1.68-4.13-2.07-8.57-2.47-13.22-.06-.59-.1-1.19-.12-1.79s-.07-1.4,0-2.1c.38-13.36-5.43-3.1-9.91,5.53-6.68,12.83-10.28,40.66-10,45.78,2.77,48.08-55.55,40.19-67.31,91.47,0,.16-.19,2.11-.19,2.93a44.49,44.49,0,0,0,1.18,10.2l.06.25a3.17,3.17,0,0,1-1,2.4l-.12.07L33,196l0,0a4,4,0,0,0-1.92,3.15c0,.24,0,.47,0,.7.13,1.22.32,2.47,2.61,2.91H67.27c-5.86-3-8-21.95-6.69-30,1.51-9.09-6.47-8.13-3.59-12.93,1-1.61,6.26.59,7.14,5,1.39,6.93-1.35,6.49.22,20.29,1,9.06,5.29,11.62,5.4,11.23s-3.91-8.1-3-17.21c1.6-16.31,9.86-21.72,11.64-23.2,6.14-5.11,12.75-7.88,20.08-11.39,1.26-.61,2.4-3.65,2.9-4.89.88-2.19,6.06-15.81,14-21.48,1.78-1.27,5.58-6.65,5.11-4.51-.42,1.92-.64,7.94-.22,8.59,8.54,2.71,8.76,7.47,12.31,11.33,3.87,4.21-8.81,8.73-8.8,9,0,.62-.09,5.82-.34,7.73a44.27,44.27,0,0,1-2.94,11h0c-.05.08-.1.15-.15.24a44.15,44.15,0,0,0-3.22,6.32h0a43.37,43.37,0,0,0-1.78,5.26,44.22,44.22,0,0,0-1.55,11.63,38.91,38.91,0,0,0,.81,8.48c1.9,8.37,4.93,6.66,4,9.43H145.8a1.41,1.41,0,0,0,1.36-1.67,2.44,2.44,0,0,0-.06-.55h0v0c-.05-.13-.09-.26-.14-.4a71.08,71.08,0,0,1-3.57-16.89c-.09-1-.16-2.09-.21-3.14s-.08-2.18-.08-3.29a73.24,73.24,0,0,1,.38-7.44c.74-7.18,5.84-24.67,6.06-26.79a117.09,117.09,0,0,0,.63-12.2A116.17,116.17,0,0,0,142.21,88l-.4-1a1.16,1.16,0,0,1,1.08-1.59h0a27.75,27.75,0,0,0,12.63-3h0c.55-.43,1.08-.88,1.6-1.35A27.68,27.68,0,0,0,163.25,73a24.57,24.57,0,0,0,1.12-2.51s1.35-5.47,1.35-6.23a1.37,1.37,0,0,0-1.35-1.38"/></svg>