<svg xmlns="http://www.w3.org/2000/svg" width="23.66" height="19.224" viewBox="0 0 23.66 19.224">
  <path id="layer1" d="M23.66,9.286a8.54,8.54,0,0,1-2.7.776A5.22,5.22,0,0,0,22.994,7.4a7.862,7.862,0,0,1-3.031,1.072,5.1,5.1,0,0,0-3.549-1.479,4.875,4.875,0,0,0-4.88,4.88,5.019,5.019,0,0,0,.111,1.072A14.127,14.127,0,0,1,1.294,7.881a4.882,4.882,0,0,0,1.479,6.432A2.925,2.925,0,0,1,.665,13.8a4.688,4.688,0,0,0,3.771,4.769,3.922,3.922,0,0,1-2.033.148c.148,1.442,2.181,3.327,4.362,3.327A8.05,8.05,0,0,1,0,24.073a14.723,14.723,0,0,0,7.652,2.144,13.6,13.6,0,0,0,13.678-14.27v-.185A8.451,8.451,0,0,0,23.66,9.286Z" transform="translate(0 -6.994)" fill="#00baff"/>
</svg>
