<svg xmlns="http://www.w3.org/2000/svg" width="19.88" height="20.87" viewBox="0 0 19.88 20.87">
  <path id="user-md" d="M15.9,13.229l0,0c-.063-.027-.124-.058-.188-.083A5.988,5.988,0,0,0,18,8.435a5.29,5.29,0,0,0-.045-.63.946.946,0,0,0,.038-.122l.281-2.4a3.006,3.006,0,0,0-2.443-3.3l-.79-.144a16.931,16.931,0,0,0-6.083,0l-.791.144a3.006,3.006,0,0,0-2.442,3.3l.281,2.4a.946.946,0,0,0,.038.122A5.29,5.29,0,0,0,6,8.435a5.988,5.988,0,0,0,2.294,4.709c-.064.025-.125.056-.188.083l0,0a9.948,9.948,0,0,0-6.036,8.1,1,1,0,1,0,1.988.217A7.948,7.948,0,0,1,8.27,15.358l3.023,3.023a1,1,0,0,0,1.414,0l3.023-3.023a7.948,7.948,0,0,1,4.215,6.185,1,1,0,0,0,.993.892,1.048,1.048,0,0,0,.11-.006,1,1,0,0,0,.886-1.1,9.948,9.948,0,0,0-6.036-8.1ZM7.712,5.051a1,1,0,0,1,.814-1.1l.791-.144a14.93,14.93,0,0,1,5.367,0l.79.144a1,1,0,0,1,.814,1.1L16.11,6.565H7.89ZM12,16.26l-1.65-1.65a7.85,7.85,0,0,1,3.3,0Zm0-3.826A4.005,4.005,0,0,1,8,8.565h8a4.005,4.005,0,0,1-4,3.869Z" transform="translate(-2.06 -1.564)" fill="#00b5e2"/>
</svg>
